<?xml version="1.0" standalone="no"?>
<!DOCTYPE svg PUBLIC "-//W3C//DTD SVG 20010904//EN"
 "http://www.w3.org/TR/2001/REC-SVG-20010904/DTD/svg10.dtd">
<svg version="1.0" xmlns="http://www.w3.org/2000/svg"
 width="1035.000000pt" height="528.000000pt" viewBox="0 0 1035.000000 528.000000"
 preserveAspectRatio="xMidYMid meet">

<g transform="translate(0.000000,528.000000) scale(0.100000,-0.100000)"
fill="#000000" stroke="none">
<path d="M5113 5140 c-39 -24 -53 -48 -53 -95 0 -72 47 -120 114 -118 45 1 73
18 96 56 65 106 -51 222 -157 157z"/>
<path d="M4708 5127 c-49 -41 -61 -93 -34 -146 21 -39 58 -61 107 -61 33 0 47
6 75 34 29 29 34 41 34 81 0 40 -5 52 -34 81 -28 28 -41 34 -77 34 -31 0 -52
-7 -71 -23z"/>
<path d="M5509 5135 c-27 -14 -59 -69 -59 -99 0 -63 57 -116 125 -116 54 0
107 53 109 107 0 22 -6 53 -14 68 -27 51 -105 70 -161 40z"/>
<path d="M4335 5121 c-78 -32 -92 -153 -24 -202 34 -24 92 -29 128 -10 28 15
61 69 61 99 0 82 -90 143 -165 113z"/>
<path d="M5909 5115 c-85 -46 -77 -174 14 -210 101 -40 193 67 142 165 -28 54
-101 75 -156 45z"/>
<path d="M3929 5073 c-99 -61 -61 -213 53 -213 75 0 118 43 118 120 0 34 -6
48 -34 76 -27 27 -42 34 -72 34 -22 0 -51 -8 -65 -17z"/>
<path d="M6286 5060 c-40 -36 -52 -76 -36 -125 17 -50 53 -75 111 -75 39 0 53
5 77 29 36 37 46 81 28 125 -33 79 -118 100 -180 46z"/>
<path d="M3554 5026 c-43 -19 -74 -62 -74 -103 0 -98 95 -153 178 -103 80 49
66 168 -24 206 -40 17 -41 17 -80 0z"/>
<path d="M6725 5032 c-65 -15 -106 -85 -85 -147 35 -106 170 -114 216 -12 16
35 16 43 3 79 -20 59 -78 94 -134 80z"/>
<path d="M3144 4941 c-97 -59 -53 -211 62 -211 39 0 51 5 80 34 29 29 34 41
34 81 0 40 -5 52 -34 81 -40 40 -92 46 -142 15z"/>
<path d="M7080 4943 c-56 -38 -72 -91 -45 -147 34 -72 130 -90 184 -36 55 56
49 129 -15 179 -33 26 -90 27 -124 4z"/>
<path d="M2774 4860 c-12 -4 -31 -20 -42 -35 -57 -72 -22 -166 70 -189 59 -14
138 50 138 112 0 83 -89 143 -166 112z"/>
<path d="M7468 4854 c-60 -32 -76 -121 -33 -173 73 -86 205 -39 205 73 0 88
-94 143 -172 100z"/>
<path d="M4780 4813 c-954 -49 -1656 -169 -2356 -401 -927 -307 -1585 -762
-1858 -1285 -25 -49 -46 -96 -46 -105 0 -15 -2 -15 -11 -2 -8 12 -10 12 -8 -5
2 -33 -1 -41 -11 -25 -8 12 -11 12 -28 -3 -26 -24 -42 -21 -42 8 0 34 1 30
-16 71 -28 68 -90 97 -158 74 -47 -15 -76 -53 -76 -100 0 -36 -2 -38 -44 -50
-26 -7 -47 -19 -49 -29 -4 -14 -5 -14 -6 2 0 9 -5 17 -10 17 -44 0 -65 -449
-28 -617 53 -248 176 -496 357 -723 90 -113 300 -317 430 -420 525 -414 1281
-750 2153 -960 733 -176 1574 -263 2377 -246 173 3 333 8 355 10 22 3 92 7
155 11 134 7 455 38 620 61 1673 225 3003 848 3573 1675 128 185 221 402 265
613 23 114 22 405 -1 496 -10 36 -19 74 -22 84 -6 26 -25 45 -25 25 0 -12 -2
-12 -10 1 -8 12 -10 10 -11 -10 l-1 -25 -8 25 c-8 24 -8 24 -9 3 -1 -28 -21
-31 -21 -3 0 25 -20 27 -21 3 0 -12 -2 -13 -6 -5 -3 7 0 19 6 26 6 7 7 16 3
20 -4 4 -7 11 -7 14 -1 30 -33 76 -66 93 -48 24 -83 24 -123 0 -27 -17 -76
-81 -62 -81 3 0 1 -11 -4 -24 -6 -17 -5 -26 3 -29 9 -3 9 -8 0 -18 -7 -7 -13
-9 -13 -3 0 5 -9 11 -20 12 -11 1 -28 2 -37 3 -23 3 -34 19 -28 44 3 11 2 14
-1 7 -3 -7 -20 17 -38 55 -76 157 -160 275 -305 426 -763 795 -2483 1307
-4355 1295 -166 -1 -326 -3 -356 -5z m858 -272 c67 -30 135 -105 158 -173 23
-69 15 -167 -18 -232 l-25 -49 28 -46 c50 -81 55 -198 13 -287 -24 -51 -89
-113 -150 -144 l-49 -25 -530 0 -530 0 -3 128 -3 127 90 0 90 0 3 -37 3 -38
165 0 165 0 3 108 3 107 -56 0 c-54 0 -55 0 -55 -30 l0 -30 -95 0 -95 0 0 165
0 165 95 0 95 0 0 -31 0 -30 53 3 52 3 0 90 0 90 -160 -3 c-167 -3 -175 -5
-175 -49 0 -22 -3 -23 -90 -23 -79 0 -90 2 -91 18 -5 159 -5 229 -1 240 4 10
108 12 531 10 l526 -3 53 -24z m-1209 -1182 c52 -9 62 -14 46 -21 -17 -7 -15
-8 7 -5 15 2 25 0 22 -4 -3 -5 -3 -9 0 -9 2 0 13 -3 23 -6 15 -5 16 -4 3 6
-13 10 -13 11 0 7 8 -2 14 -12 13 -22 -1 -12 2 -14 10 -6 17 17 129 -57 124
-83 -1 -6 3 -10 8 -9 6 1 11 -7 12 -17 2 -17 0 -17 -20 3 -12 12 -21 28 -19
34 3 15 -14 18 -23 4 -3 -5 6 -18 20 -29 13 -11 21 -22 18 -26 -3 -3 -1 -6 5
-6 7 0 12 -6 12 -14 0 -7 7 -19 15 -26 8 -7 13 -15 10 -19 -2 -4 2 -28 10 -54
7 -25 15 -76 17 -114 l3 -68 -121 -3 -121 -3 -6 47 c-2 26 -9 49 -13 53 -5 3
-10 13 -12 21 -5 22 -41 58 -75 75 -37 18 -139 32 -117 15 12 -8 10 -9 -11 -5
-19 5 -28 2 -32 -9 -4 -9 -12 -16 -19 -16 -9 0 -8 3 2 10 9 6 10 10 3 10 -23
0 -91 -90 -97 -128 -3 -20 -7 -203 -8 -407 -3 -417 -6 -404 75 -469 36 -29 44
-31 120 -31 71 0 86 3 115 24 54 42 72 92 72 209 l0 102 -80 0 -80 0 0 105 0
105 203 -2 202 -3 -2 -225 c-3 -303 -20 -368 -123 -470 -107 -107 -297 -145
-465 -93 -119 37 -235 142 -284 255 -36 84 -41 151 -41 528 0 378 3 414 44
512 9 21 16 40 16 43 0 3 9 14 20 25 12 12 18 25 15 30 -3 5 -1 11 5 15 6 4 8
10 5 15 -3 4 3 14 12 21 12 10 14 10 9 2 -10 -19 2 -16 40 8 37 22 47 37 14
19 -19 -10 -20 -9 -9 8 8 12 19 18 28 14 9 -3 13 -1 8 3 -9 11 61 51 122 69
57 18 182 20 270 5z m-2584 -29 c4 -6 15 -8 24 -5 22 7 84 -18 74 -30 -5 -4
-2 -5 5 -1 15 9 52 -2 52 -15 0 -6 -6 -7 -12 -3 -9 5 -9 2 1 -9 7 -9 19 -17
25 -17 6 0 4 5 -4 10 -9 6 -10 10 -3 10 6 0 19 -7 27 -16 9 -8 21 -12 27 -8 7
4 9 3 6 -3 -8 -13 17 -36 28 -25 5 4 5 1 1 -6 -6 -11 -12 -10 -29 5 -16 13
-15 9 4 -12 92 -106 131 -241 104 -365 -20 -93 -81 -196 -137 -230 l-29 -17
46 -27 c156 -92 212 -331 122 -521 -45 -93 -120 -175 -196 -212 l-56 -28 -307
-3 -308 -3 0 705 c0 387 -4 706 -9 708 -4 2 -10 22 -14 46 -4 34 -2 42 11 43
15 1 15 2 0 6 -19 5 -23 15 -11 26 11 12 551 8 558 -3z m705 -2 c0 11 32 13
157 11 l157 -3 38 -35 c21 -20 38 -42 38 -49 0 -7 5 -10 10 -7 6 3 10 -1 10
-10 0 -9 4 -14 9 -11 10 6 25 -24 16 -32 -3 -3 -5 0 -5 7 0 7 -4 10 -8 7 -10
-6 -88 74 -84 86 1 4 -2 8 -8 8 -5 0 -10 -14 -10 -31 0 -17 -4 -28 -10 -24 -5
3 -10 2 -10 -4 0 -5 6 -12 13 -15 8 -3 7 -8 -5 -16 -17 -10 -18 -47 -18 -529
l0 -518 23 -34 c12 -18 38 -44 57 -57 30 -20 45 -23 100 -20 77 4 118 28 146
85 21 43 21 49 15 713 -2 206 -7 362 -11 345 -6 -25 -8 -20 -10 30 -3 61 -3
94 -1 108 2 12 31 8 32 -5 0 -10 2 -10 6 0 3 9 43 12 148 12 140 0 144 -1 174
-26 17 -14 28 -31 24 -36 -3 -6 -2 -8 4 -5 12 8 59 -40 50 -50 -4 -3 -1 -13 6
-22 11 -14 10 -14 -6 -2 -10 8 -15 21 -12 29 3 9 0 12 -9 9 -14 -6 -59 36 -69
63 -6 16 -7 8 -12 -65 -3 -63 -7 -72 -15 -40 -4 17 -8 -200 -9 -481 -1 -318
-5 -533 -12 -570 -40 -219 -232 -379 -454 -377 -216 2 -398 155 -439 371 -9
47 -14 214 -15 557 -2 270 -6 499 -9 510 -3 11 -5 39 -5 63 0 23 -4 42 -8 42
-5 0 -6 7 -2 16 5 13 7 13 14 2 7 -11 9 -11 9 0z m3305 -20 c20 -17 41 -43 46
-56 5 -14 12 -22 16 -19 7 8 43 -37 43 -54 0 -7 -3 -9 -7 -5 -5 4 -8 12 -8 17
0 5 -3 8 -7 7 -10 -4 -78 64 -72 73 2 4 0 10 -5 14 -10 6 -7 -69 4 -105 4 -12
2 -20 -5 -20 -6 0 -8 5 -5 10 3 6 1 10 -4 10 -20 0 -11 -31 12 -40 17 -7 18
-9 4 -9 -13 -1 -16 -7 -12 -23 3 -13 68 -302 146 -643 77 -341 142 -630 146
-642 l5 -23 -144 0 -144 0 -29 140 -28 140 -218 0 -218 0 -10 -37 c-5 -21 -20
-84 -32 -140 l-23 -103 -143 0 c-94 0 -143 4 -143 11 0 5 27 114 59 242 115
446 259 1022 264 1052 3 17 10 44 15 61 6 18 6 37 1 45 -11 18 -11 32 0 24 10
-5 27 32 23 49 -2 4 3 14 9 22 10 12 9 13 -5 8 -15 -6 -22 6 -10 19 3 3 104 6
224 7 l219 1 36 -33z m407 17 c5 -6 8 -5 8 3 0 9 99 12 460 12 l459 0 36 -31
c19 -17 33 -34 31 -38 -4 -7 19 -31 31 -32 5 0 7 -7 5 -16 -2 -8 1 -13 5 -10
5 3 15 2 22 -2 10 -7 10 -9 -2 -14 -15 -6 -104 79 -100 94 2 5 -3 6 -10 4 -8
-4 -11 -22 -9 -53 2 -35 0 -43 -7 -32 -12 17 -15 -1 -15 -100 l-1 -55 -162 -3
-163 -2 0 -625 0 -625 -140 0 -140 0 0 625 0 624 -157 3 -158 3 -6 75 c-3 41
-7 66 -9 55 -2 -11 -6 7 -9 40 -4 35 -2 63 4 67 6 5 4 8 -5 9 -10 0 -8 3 5 9
11 5 14 9 8 9 -7 1 -13 6 -13 11 0 12 22 9 32 -5z m1169 3 c0 -10 2 -10 6 0 4
9 106 12 467 12 481 0 486 0 486 -42 0 -10 5 -18 11 -18 5 0 7 6 3 13 -4 6 9
-4 29 -22 37 -35 46 -51 27 -51 -5 0 -10 8 -10 18 0 14 -2 15 -10 2 -8 -13
-10 -12 -10 3 0 10 -4 16 -9 12 -5 -3 -18 6 -29 20 -14 17 -23 22 -27 14 -6
-8 -10 -7 -16 2 -5 8 -9 9 -9 3 0 -6 7 -17 15 -24 17 -14 21 -70 4 -70 -5 0
-7 5 -4 10 3 6 1 10 -5 10 -7 0 -9 -8 -5 -20 4 -11 3 -50 0 -85 l-7 -65 -159
0 -159 0 0 -625 0 -625 -140 0 -140 0 0 625 0 625 -153 0 c-140 0 -154 2 -170
20 -9 11 -13 20 -9 20 11 0 14 102 3 109 -5 4 -11 31 -12 61 -2 75 -1 80 16
80 8 0 15 -6 16 -12z m1168 -5 c1 17 12 18 156 16 l154 -3 48 -48 c26 -26 42
-48 35 -48 -10 0 -10 -3 0 -14 7 -8 16 -12 19 -10 3 2 6 -4 6 -13 0 -9 -17 3
-44 31 -24 26 -41 51 -38 57 7 10 3 11 -17 4 -10 -4 -13 -25 -12 -78 1 -39 0
-60 -3 -44 -2 15 -9 27 -14 27 -5 0 -9 -273 -9 -700 l0 -700 -138 0 -139 0 -6
497 c-4 273 -7 593 -7 710 0 133 -4 222 -11 234 -7 14 -7 24 0 33 7 9 6 19 -6
36 -9 13 -11 20 -5 16 7 -4 12 -1 13 6 0 7 4 4 9 -7 8 -18 9 -18 9 -2z m-109
-118 c0 -8 -4 -15 -9 -15 -13 0 -22 16 -14 24 11 11 23 6 23 -9z m-6370 -9 c0
-11 -19 -15 -25 -6 -3 5 1 10 9 10 9 0 16 -2 16 -4z m747 -18 c-3 -8 -6 -5 -6
6 -1 11 2 17 5 13 3 -3 4 -12 1 -19z m6170 0 c-3 -8 -6 -5 -6 6 -1 11 2 17 5
13 3 -3 4 -12 1 -19z m-3690 -10 c-3 -8 -6 -5 -6 6 -1 11 2 17 5 13 3 -3 4
-12 1 -19z m-3206 -3 c5 4 6 -1 3 -9 -3 -9 -1 -17 5 -17 26 -3 30 -4 35 -11 3
-5 3 -6 -1 -3 -3 3 -13 -1 -22 -7 -9 -7 -13 -9 -9 -4 4 5 -4 17 -17 28 -14 11
-22 25 -18 31 5 8 8 8 11 -1 2 -7 8 -10 13 -7z m851 -7 c-7 -7 -12 -8 -12 -2
0 6 3 14 7 17 3 4 9 5 12 2 2 -3 -1 -11 -7 -17z m1728 2 c0 -5 -5 -10 -11 -10
-5 0 -7 5 -4 10 3 6 8 10 11 10 2 0 4 -4 4 -10z m34 -15 c-4 -8 -11 -12 -16
-9 -6 4 -5 10 3 15 19 12 19 11 13 -6z m1224 -16 c-3 -8 -7 -3 -11 10 -4 17
-3 21 5 13 5 -5 8 -16 6 -23z m-3794 -65 c3 -8 2 -12 -4 -9 -6 3 -10 10 -10
16 0 14 7 11 14 -7z m-1707 -676 c-3 -8 -6 -5 -6 6 -1 11 2 17 5 13 3 -3 4
-12 1 -19z m9368 -96 c-38 -107 -97 -222 -166 -322 -56 -82 -221 -274 -270
-314 -13 -11 -53 -45 -89 -76 -433 -376 -1143 -698 -1992 -904 -1277 -309
-2861 -321 -4169 -32 -1409 313 -2397 921 -2653 1635 -15 41 -25 78 -23 84 1
5 9 -10 17 -34 151 -474 692 -951 1456 -1283 1205 -524 2840 -716 4434 -521
1144 141 2148 490 2795 974 168 126 372 326 468 461 74 104 164 275 193 369
11 33 21 55 23 50 2 -6 -9 -45 -24 -87z"/>
<path d="M4560 4430 l0 -100 60 0 60 0 0 40 0 40 200 0 200 0 0 -125 0 -125
-90 0 -90 0 0 30 0 30 -60 0 -60 0 0 -135 0 -135 60 0 c46 0 60 3 61 15 1 8 2
21 3 28 1 8 28 13 89 15 l87 3 0 -141 0 -140 -200 0 -200 0 0 40 0 40 -60 0
-60 0 0 -100 0 -101 513 3 c508 3 512 3 558 25 162 80 207 263 103 414 l-25
37 32 58 c28 50 33 67 32 123 0 81 -20 129 -77 186 -75 75 -78 75 -643 75
l-493 0 0 -100z m1019 -34 c39 -21 61 -58 61 -105 0 -57 -15 -88 -52 -111 -29
-18 -51 -20 -185 -20 l-153 0 0 125 0 125 150 0 c112 0 158 -4 179 -14z m31
-421 c41 -39 55 -89 41 -141 -22 -82 -74 -103 -258 -104 l-132 0 -3 141 -3
140 162 -3 162 -3 31 -30z"/>
<path d="M5290 4280 l0 -90 118 0 c92 0 124 4 151 18 56 28 66 97 21 142 -18
18 -34 20 -155 20 l-135 0 0 -90z"/>
<path d="M5290 3870 l0 -110 115 0 c169 0 215 25 215 116 0 85 -37 104 -205
104 l-125 0 0 -110z"/>
<path d="M4565 3280 c3 -5 8 -10 11 -10 2 0 4 5 4 10 0 6 -5 10 -11 10 -5 0
-7 -4 -4 -10z"/>
<path d="M4616 3255 c4 -8 11 -15 16 -15 6 0 5 6 -2 15 -7 8 -14 15 -16 15 -2
0 -1 -7 2 -15z"/>
<path d="M3943 3213 c4 -3 1 -13 -6 -22 -11 -14 -10 -14 5 -2 16 12 16 31 1
31 -4 0 -3 -3 0 -7z"/>
<path d="M1880 3306 c0 -2 11 -6 25 -8 13 -3 22 -1 19 3 -5 9 -44 13 -44 5z"/>
<path d="M1605 3090 c3 -5 1 -10 -4 -10 -7 0 -11 -63 -11 -190 l0 -190 87 0
c104 0 160 22 194 76 26 42 35 133 20 190 -13 48 -75 116 -99 107 -9 -4 -13
-2 -9 4 7 11 11 10 -101 18 -55 3 -81 2 -77 -5z"/>
<path d="M1590 2250 l0 -240 105 0 c74 0 115 5 134 15 73 37 117 136 109 244
-5 71 -25 119 -67 164 -44 49 -71 57 -181 57 l-100 0 0 -240z"/>
<path d="M2890 3286 c0 -3 9 -10 20 -16 11 -6 20 -8 20 -6 0 3 -9 10 -20 16
-11 6 -20 8 -20 6z"/>
<path d="M5410 3319 c0 -5 5 -7 10 -4 6 3 10 8 10 11 0 2 -4 4 -10 4 -5 0 -10
-5 -10 -11z"/>
<path d="M5811 3298 c-1 -21 15 -32 25 -17 4 7 3 9 -4 5 -6 -3 -13 2 -15 11
-4 16 -5 16 -6 1z"/>
<path d="M5587 3040 c-3 -19 -41 -189 -85 -377 l-78 -343 168 0 c157 0 169 1
164 18 -6 19 -19 80 -96 452 -28 135 -54 254 -59 265 -6 16 -9 14 -14 -15z"/>
<path d="M6241 3224 c0 -11 3 -14 6 -6 3 7 2 16 -1 19 -3 4 -6 -2 -5 -13z"/>
<path d="M8966 3257 c3 -10 9 -15 12 -12 3 3 0 11 -7 18 -10 9 -11 8 -5 -6z"/>
<path d="M2390 4743 c-21 -11 -42 -33 -54 -56 -16 -33 -17 -45 -7 -77 18 -61
80 -100 135 -86 14 3 38 18 55 32 100 84 -12 247 -129 187z"/>
<path d="M7870 4752 c-9 -4 -25 -14 -36 -22 -67 -49 -54 -164 21 -196 44 -18
59 -18 101 2 77 37 87 146 18 197 -27 21 -81 30 -104 19z"/>
<path d="M2015 4608 c-106 -61 -67 -218 55 -218 116 0 159 155 60 213 -32 19
-86 22 -115 5z"/>
<path d="M8218 4604 c-53 -28 -72 -98 -43 -154 21 -42 53 -60 103 -60 37 0 50
6 78 34 29 29 34 41 34 81 0 40 -5 52 -34 81 -27 27 -42 34 -72 34 -22 -1 -51
-7 -66 -16z"/>
<path d="M1642 4444 c-28 -19 -52 -65 -52 -99 0 -34 24 -80 52 -99 36 -25 101
-20 137 10 57 48 58 125 1 177 -35 32 -101 37 -138 11z"/>
<path d="M8585 4448 c-104 -60 -66 -217 54 -220 60 -2 121 58 121 118 0 31
-33 85 -61 99 -33 18 -86 19 -114 3z"/>
<path d="M1338 4270 c-108 -19 -134 -154 -41 -211 79 -49 173 5 173 99 -1 76
-58 125 -132 112z"/>
<path d="M8910 4241 c-37 -36 -46 -72 -31 -121 22 -75 120 -105 180 -55 90 77
44 205 -74 205 -38 0 -52 -5 -75 -29z"/>
<path d="M950 4023 c-59 -53 -48 -153 20 -188 95 -49 198 35 169 140 -21 75
-128 102 -189 48z"/>
<path d="M9240 4023 c-42 -38 -51 -98 -21 -146 51 -82 161 -75 207 14 20 40 9
92 -28 129 -25 25 -38 30 -79 30 -39 0 -55 -5 -79 -27z"/>
<path d="M684 3790 c-11 -4 -33 -22 -47 -40 -52 -61 -25 -158 52 -181 68 -20
132 13 150 77 26 94 -67 180 -155 144z"/>
<path d="M9563 3780 c-56 -34 -76 -95 -49 -148 33 -63 97 -87 155 -58 37 20
71 70 71 106 0 56 -65 120 -122 120 -13 0 -37 -9 -55 -20z"/>
<path d="M436 3490 c-64 -20 -98 -88 -76 -154 29 -90 160 -105 210 -24 58 95
-29 210 -134 178z"/>
<path d="M9845 3492 c-99 -33 -118 -161 -32 -216 65 -42 155 -6 176 71 24 85
-62 171 -144 145z"/>
<path d="M60 3001 c0 -6 5 -13 10 -16 6 -3 10 1 10 9 0 9 -4 16 -10 16 -5 0
-10 -4 -10 -9z"/>
</g>
</svg>
