<?xml version="1.0" standalone="no"?>
<!DOCTYPE svg PUBLIC "-//W3C//DTD SVG 20010904//EN"
 "http://www.w3.org/TR/2001/REC-SVG-20010904/DTD/svg10.dtd">
<svg version="1.0" xmlns="http://www.w3.org/2000/svg"
 width="2400.000000pt" height="2400.000000pt" viewBox="0 0 2400.000000 2400.000000"
 preserveAspectRatio="xMidYMid meet">

<g transform="translate(0.000000,2400.000000) scale(0.100000,-0.100000)"
fill="#000000" stroke="none">
<path d="M3640 13135 c-7 -8 -19 -15 -27 -15 -7 0 -16 -6 -19 -13 -2 -7 -578
-495 -1279 -1083 -701 -588 -1274 -1074 -1274 -1081 -1 -6 3 -23 9 -37 l10
-26 621 0 622 0 81 74 c44 41 279 258 521 484 l440 409 3 -483 2 -484 566 0
565 0 486 453 c267 248 503 467 525 485 l38 34 0 -486 0 -486 580 0 580 0 0
1120 0 1120 -448 0 -448 0 -642 -550 -642 -550 -2 548 -3 547 -417 3 c-362 2
-418 4 -418 17 0 19 -14 19 -30 0z m792 -686 l3 -590 690 590 690 591 402 0
403 0 0 -1040 0 -1040 -510 0 -510 0 -2 528 -3 528 -285 -265 c-157 -145 -412
-383 -568 -528 l-283 -263 -519 0 -520 0 -2 526 -3 526 -565 -525 -565 -526
-560 0 c-530 0 -559 1 -540 17 243 203 1905 1600 2134 1794 l316 266 397 1
398 1 2 -591z"/>
<path d="M9900 12000 l0 -1120 950 0 950 0 0 290 0 290 -365 0 -365 0 0 830 0
830 -585 0 -585 0 0 -1120z m1092 218 l3 -823 363 -3 362 -2 0 -215 0 -215
-875 0 -875 0 0 1040 0 1040 510 0 510 0 2 -822z"/>
<path d="M7465 12730 c-88 -12 -171 -44 -247 -96 -219 -149 -348 -455 -348
-824 0 -458 193 -801 510 -906 52 -18 120 -19 1203 -22 l1147 -3 0 290 0 290
-742 3 c-729 3 -744 3 -788 24 -120 55 -191 228 -162 396 22 126 73 207 156
247 42 21 55 21 789 21 l747 0 0 295 0 295 -1102 -1 c-607 -1 -1130 -5 -1163
-9z m2195 -285 l0 -214 -717 -3 -718 -3 -52 -24 c-130 -58 -213 -211 -213
-391 0 -179 79 -327 208 -391 l47 -24 723 -3 722 -3 0 -215 0 -214 -1123 2
-1124 3 -85 42 c-229 114 -366 381 -385 753 -22 431 176 806 468 884 46 12
226 15 1152 15 l1097 1 0 -215z"/>
<path d="M12090 12445 l0 -295 850 0 850 0 0 -90 0 -90 -772 -2 c-877 -3 -807
4 -900 -89 -53 -54 -86 -114 -120 -219 -20 -65 -23 -95 -23 -230 0 -135 3
-165 23 -230 48 -152 112 -239 211 -287 l56 -28 1004 -3 c850 -2 1018 0 1090
12 341 59 570 393 588 857 9 233 -22 399 -112 584 -99 205 -231 322 -428 383
-46 14 -184 16 -1184 19 l-1133 4 0 -296z m2294 200 c104 -27 166 -64 251
-150 65 -64 90 -98 128 -175 154 -309 154 -710 1 -1019 -38 -76 -62 -110 -128
-176 -85 -86 -148 -124 -247 -150 -45 -12 -223 -15 -1085 -15 l-1031 0 -44 23
c-163 86 -237 432 -149 694 37 108 111 191 190 213 21 6 334 10 813 10 l777 0
0 165 0 165 -850 0 -850 0 0 215 0 215 1083 0 c933 0 1091 -2 1141 -15z"/>
<path d="M12940 11555 l0 -165 460 0 460 0 0 165 0 165 -460 0 -460 0 0 -165z
m850 0 l0 -95 -387 2 -388 3 -3 79 c-2 44 -1 85 2 93 4 10 78 13 391 13 l385
0 0 -95z"/>
<path d="M15327 12720 c-73 -28 -131 -81 -166 -152 l-31 -61 0 -814 0 -813
580 0 580 0 0 635 0 635 305 0 305 0 0 295 0 295 -762 0 c-722 -1 -766 -2
-811 -20z m1503 -275 l0 -215 -305 0 -305 0 0 -635 0 -635 -510 0 -510 0 0
753 c0 465 4 766 10 788 13 45 71 114 119 139 35 18 65 19 769 20 l732 0 0
-215z"/>
<path d="M17578 12730 c-337 -40 -578 -354 -617 -807 -19 -215 18 -448 99
-621 95 -201 223 -324 407 -389 l78 -28 1138 -3 1137 -3 0 291 0 290 -850 0
-850 0 0 95 0 95 763 0 c744 0 763 1 807 21 66 30 103 62 144 124 155 233 131
671 -47 849 -49 48 -95 72 -168 86 -62 12 -1940 11 -2041 0z m2087 -89 c46
-21 105 -82 135 -141 85 -167 82 -469 -7 -631 -34 -64 -100 -125 -149 -138
-26 -7 -296 -11 -821 -11 l-783 0 0 -165 0 -165 850 0 850 0 0 -215 0 -215
-1083 0 c-940 0 -1091 2 -1142 15 -179 47 -331 199 -410 409 -57 153 -69 226
-69 426 0 204 12 279 74 437 79 205 235 356 412 399 41 9 282 12 1078 13 971
1 1027 0 1065 -18z"/>
<path d="M18040 12065 l0 -165 465 0 465 0 0 165 0 165 -465 0 -465 0 0 -165z
m850 -5 l0 -90 -385 0 -385 0 0 90 0 90 385 0 385 0 0 -90z"/>
<path d="M20110 11810 l0 -930 583 2 582 3 3 634 2 634 113 -6 c244 -12 425
-77 489 -175 48 -72 48 -77 48 -598 l0 -494 525 0 525 0 0 673 c0 742 -1 755
-62 869 -91 171 -273 285 -492 308 -52 6 -562 10 -1203 10 l-1113 0 0 -930z
m2404 830 c159 -40 284 -136 348 -267 l33 -68 3 -672 3 -673 -446 0 -445 0 0
418 c0 433 -7 527 -40 591 -81 160 -277 239 -637 257 l-133 7 0 -637 0 -636
-510 0 -510 0 0 850 0 850 1128 0 c1091 0 1131 -1 1206 -20z"/>
</g>
</svg>
